<?xml version="1.0" encoding="utf-8"?>
<!-- Generator: Adobe Illustrator 16.0.0, SVG Export Plug-In . SVG Version: 6.00 Build 0)  -->
<!DOCTYPE svg PUBLIC "-//W3C//DTD SVG 1.1//EN" "http://www.w3.org/Graphics/SVG/1.1/DTD/svg11.dtd">
<svg version="1.1" id="Capa_1" xmlns="http://www.w3.org/2000/svg" xmlns:xlink="http://www.w3.org/1999/xlink" x="0px" y="0px"
	 width="144px" height="27.75px" viewBox="4.25 17.5 144 27.75" enable-background="new 4.25 17.5 144 27.75" xml:space="preserve">
<g>
	<g>
		<path fill="#FFFFFF" d="M14.367,19.943c2.386,0,4.082-0.024,5.088-0.071c-0.111,1.521-0.167,2.885-0.167,4.089
			c0,0.753,0.024,1.34,0.072,1.76h-0.559c-0.396-1.878-0.995-3.229-1.794-4.054c-0.8-0.824-1.696-1.237-2.687-1.237h-0.321
			c-0.444,0-0.765,0.037-0.963,0.107c-0.198,0.071-0.334,0.212-0.41,0.422s-0.113,0.545-0.113,1.004v6.23h0.25
			c0.579,0,1.101-0.162,1.563-0.487c0.463-0.325,0.847-0.733,1.147-1.225s0.503-0.991,0.606-1.498h0.559
			c-0.064,0.952-0.096,1.74-0.096,2.366l0.012,1.094c0,0.697,0.052,1.851,0.155,3.46h-0.558c-0.103-0.61-0.308-1.159-0.612-1.647
			c-0.306-0.486-0.696-0.871-1.171-1.152c-0.475-0.281-1.011-0.422-1.605-0.422h-0.25v5.599c0,0.683,0.07,1.18,0.208,1.493
			c0.139,0.313,0.393,0.521,0.762,0.624c0.369,0.103,0.949,0.154,1.742,0.154v0.559c-2.188-0.048-3.86-0.071-5.018-0.071
			c-0.27,0-1.724,0.023-4.363,0.071v-0.49c0.523-0.023,0.901-0.087,1.136-0.189c0.233-0.103,0.392-0.293,0.476-0.57
			s0.125-0.721,0.125-1.331v-12.08c0-0.61-0.043-1.053-0.131-1.332c-0.087-0.277-0.248-0.468-0.481-0.571
			c-0.234-0.103-0.609-0.166-1.125-0.19v-0.487C7.729,19.919,10.571,19.943,14.367,19.943z"/>
		<path fill="#FFFFFF" d="M33.615,36.095c0.206,0.336,0.559,0.504,1.058,0.504v0.512c-0.507-0.048-1.01-0.071-1.509-0.071
			c-1.704,0-3.115,0.114-4.233,0.345v-1.76c-0.736,1.221-2.028,1.831-3.875,1.831c-1.292,0-2.207-0.325-2.747-0.976
			c-0.246-0.293-0.426-0.685-0.541-1.176s-0.173-1.146-0.173-1.962v-6.218c0-0.753-0.101-1.297-0.303-1.634
			s-0.553-0.506-1.052-0.506v-0.511c0.507,0.047,1.01,0.072,1.509,0.072c1.68,0,3.091-0.111,4.233-0.333V34.65
			c0,0.523,0.095,0.909,0.285,1.159c0.19,0.249,0.492,0.374,0.904,0.374c0.301,0,0.586-0.076,0.856-0.228
			c0.27-0.149,0.487-0.357,0.654-0.623c0.167-0.265,0.25-0.564,0.25-0.898v-7.311c0-0.753-0.103-1.298-0.309-1.635
			c-0.207-0.337-0.559-0.506-1.059-0.506v-0.511c0.507,0.048,1.01,0.072,1.51,0.072c1.688,0,3.099-0.111,4.232-0.333v10.248
			C33.306,35.212,33.409,35.757,33.615,36.095z"/>
		<path fill="#FFFFFF" d="M40.415,30.465c0,1.562,0.271,2.673,0.814,3.334c0.542,0.663,1.207,0.993,1.992,0.993
			c1.181,0,2.164-0.543,2.948-1.629l0.416,0.155c-0.229,0.721-0.563,1.393-0.998,2.015c-0.436,0.622-0.999,1.132-1.688,1.527
			c-0.69,0.396-1.491,0.595-2.402,0.595c-1.704,0-3.069-0.529-4.095-1.587c-1.026-1.058-1.54-2.745-1.54-5.059
			c0-1.506,0.27-2.759,0.809-3.757c0.54-0.998,1.278-1.735,2.217-2.211c0.939-0.476,2.019-0.713,3.24-0.713
			c3.067,0,4.601,1.818,4.601,5.457h-6.29C40.423,29.774,40.415,30.068,40.415,30.465z M42.894,25.941
			c-0.202-0.829-0.518-1.242-0.945-1.242c-0.443,0-0.8,0.349-1.069,1.046c-0.27,0.697-0.444,1.822-0.523,3.376h2.817
			C43.189,27.829,43.096,26.769,42.894,25.941z"/>
		<path fill="#FFFFFF" d="M59.781,34.371c0.658,0.447,0.987,1.174,0.987,2.181c0,0.863-0.27,1.688-0.809,2.473
			c-0.539,0.785-1.349,1.425-2.431,1.921c-1.082,0.495-2.404,0.742-3.965,0.742c-1.402,0-2.53-0.098-3.382-0.291
			c-0.853-0.194-1.454-0.441-1.807-0.743c-0.353-0.301-0.529-0.63-0.529-0.986c0-0.444,0.16-0.738,0.482-0.886
			c0.321-0.146,0.915-0.268,1.783-0.362c0.867-0.095,1.448-0.321,1.741-0.678h-0.796c-0.412,0-0.837-0.07-1.278-0.209
			c-0.44-0.138-0.822-0.396-1.147-0.772c-0.325-0.376-0.487-0.894-0.487-1.551c0-0.539,0.101-1.012,0.303-1.415
			c0.202-0.404,0.529-0.782,0.98-1.135c0.452-0.353,1.074-0.716,1.867-1.088c-0.936-0.285-1.663-0.724-2.182-1.314
			c-0.519-0.59-0.779-1.333-0.779-2.229c0-0.864,0.244-1.588,0.731-2.17c0.487-0.583,1.159-1.017,2.015-1.302
			c0.856-0.285,1.847-0.428,2.972-0.428c0.515,0,1.003,0.031,1.463,0.095c-0.016-0.167-0.024-0.333-0.024-0.499
			c0-0.967,0.228-1.746,0.683-2.336c0.456-0.59,1.144-0.886,2.062-0.886c0.602,0,1.104,0.145,1.504,0.434
			c0.4,0.289,0.601,0.687,0.601,1.195c0,0.301-0.089,0.573-0.268,0.814c-0.178,0.241-0.418,0.431-0.719,0.57
			c-0.301,0.139-0.638,0.208-1.01,0.208c-0.555,0-1.001-0.105-1.337-0.315c-0.337-0.21-0.616-0.529-0.839-0.957
			C56.056,22.777,56,23.201,56,23.724c0,0.19,0.012,0.381,0.036,0.571c1.166,0.222,2.079,0.646,2.741,1.272
			c0.661,0.626,0.993,1.447,0.993,2.461c0,0.863-0.244,1.587-0.731,2.169c-0.487,0.583-1.159,1.017-2.015,1.303
			c-0.856,0.285-1.847,0.428-2.972,0.428c-0.847,0-1.617-0.078-2.306-0.238c-0.341,0.223-0.584,0.421-0.731,0.595
			c-0.147,0.176-0.22,0.382-0.22,0.619c0,0.53,0.29,0.797,0.867,0.797h5.529C58.26,33.698,59.124,33.922,59.781,34.371z
			 M52.102,38.555c-0.047,0.305-0.071,0.561-0.071,0.767c0,0.618,0.186,1.098,0.559,1.439c0.373,0.341,0.919,0.512,1.64,0.512
			c0.626,0,1.177-0.115,1.653-0.345c0.476-0.23,0.846-0.554,1.112-0.969c0.266-0.416,0.398-0.894,0.398-1.432
			c0-0.262-0.085-0.459-0.256-0.59c-0.171-0.131-0.458-0.195-0.862-0.195h-3.936C52.229,37.978,52.149,38.249,52.102,38.555z
			 M53.13,25.364c-0.21,0.531-0.315,1.419-0.315,2.663c0,1.252,0.105,2.142,0.315,2.67c0.21,0.526,0.518,0.79,0.921,0.79
			c0.412,0,0.724-0.264,0.934-0.79c0.21-0.527,0.315-1.418,0.315-2.67c0-1.253-0.105-2.143-0.315-2.669
			c-0.21-0.527-0.521-0.792-0.934-0.792C53.647,24.568,53.339,24.833,53.13,25.364z"/>
		<path fill="#FFFFFF" d="M72.632,25.703c1.086,1.051,1.629,2.752,1.629,5.106c0,2.346-0.542,4.04-1.629,5.082
			c-1.085,1.043-2.627,1.563-4.624,1.563c-2.005,0-3.551-0.521-4.637-1.563s-1.628-2.736-1.628-5.082
			c0-2.354,0.544-4.056,1.635-5.106c1.09-1.05,2.633-1.576,4.63-1.576S71.547,24.653,72.632,25.703z M66.766,26.148
			c-0.313,1.022-0.47,2.576-0.47,4.661c0,2.076,0.156,3.621,0.47,4.637c0.312,1.015,0.727,1.521,1.242,1.521
			c0.515,0,0.927-0.508,1.237-1.521c0.309-1.016,0.463-2.561,0.463-4.637c0-2.085-0.155-3.639-0.463-4.661
			c-0.31-1.022-0.722-1.533-1.237-1.533C67.493,24.616,67.079,25.126,66.766,26.148z"/>
		<path fill="#FFFFFF" d="M82.567,34.065c0-0.6-0.163-1.06-0.488-1.38c-0.326-0.319-0.913-0.631-1.762-0.935
			c-0.849-0.303-1.498-0.621-1.947-0.955c-0.45-0.333-0.786-0.714-1.009-1.141c-0.223-0.428-0.335-0.917-0.335-1.469
			c0-0.954,0.318-1.739,0.956-2.357s1.471-0.926,2.502-0.926c0.706,0,1.334,0.157,1.886,0.472c0.552,0.314,0.977,0.753,1.273,1.315
			c0.299,0.562,0.447,1.179,0.447,1.852h-1.521c0-0.744-0.179-1.321-0.537-1.729c-0.358-0.408-0.875-0.612-1.547-0.612
			c-0.612,0-1.086,0.172-1.422,0.515c-0.336,0.342-0.505,0.822-0.505,1.441c0,0.509,0.183,0.933,0.547,1.276
			c0.364,0.342,0.926,0.649,1.687,0.919c1.185,0.394,2.033,0.875,2.543,1.449s0.765,1.323,0.765,2.25
			c0,0.977-0.317,1.758-0.951,2.346c-0.635,0.586-1.497,0.879-2.588,0.879c-0.701,0-1.347-0.152-1.94-0.458
			c-0.593-0.307-1.059-0.737-1.397-1.291c-0.339-0.554-0.509-1.189-0.509-1.905h1.522c0,0.743,0.208,1.323,0.624,1.736
			c0.417,0.413,0.983,0.621,1.7,0.621c0.667,0,1.169-0.172,1.505-0.514C82.399,35.123,82.567,34.656,82.567,34.065z"/>
		<path fill="#FFFFFF" d="M92.376,33.959h-4.069l-0.935,3.151h-1.556l3.879-12.043h1.298l3.888,12.043h-1.556L92.376,33.959z
			 M88.704,32.66h3.284l-1.646-5.475L88.704,32.66z"/>
		<path fill="#FFFFFF" d="M104.641,35.613l-0.265,0.33c-0.761,0.889-1.875,1.332-3.342,1.332c-1.301,0-2.323-0.431-3.065-1.294
			c-0.741-0.862-1.121-2.082-1.137-3.659v-2.366c0-1.687,0.338-2.95,1.014-3.792c0.674-0.841,1.686-1.261,3.031-1.261
			c1.146,0,2.044,0.318,2.692,0.956c0.647,0.637,1.005,1.548,1.071,2.733h-1.514c-0.06-0.75-0.269-1.337-0.625-1.758
			c-0.354-0.422-0.895-0.633-1.617-0.633c-0.864,0-1.499,0.283-1.9,0.848c-0.404,0.565-0.613,1.469-0.629,2.709v2.457
			c0,1.213,0.231,2.143,0.695,2.791c0.463,0.647,1.127,0.972,1.993,0.972c0.816,0,1.436-0.198,1.861-0.594l0.224-0.205v-2.766
			h-2.202v-1.299h3.714v4.499H104.641z"/>
		<path fill="#FFFFFF" d="M111.429,32.239h-2.116v4.871h-1.522V25.068h3.375c1.18,0,2.073,0.307,2.68,0.923
			c0.606,0.615,0.91,1.515,0.91,2.701c0,0.744-0.163,1.394-0.492,1.947c-0.328,0.555-0.793,0.973-1.394,1.253l2.332,5.119v0.1h-1.63
			L111.429,32.239z M109.312,30.94h1.835c0.636,0,1.142-0.204,1.52-0.613c0.376-0.409,0.566-0.956,0.566-1.64
			c0-1.548-0.7-2.32-2.102-2.32h-1.819V30.94L109.312,30.94z"/>
		<path fill="#FFFFFF" d="M123.074,33.959h-4.069l-0.934,3.151h-1.556l3.88-12.043h1.298l3.888,12.043h-1.555L123.074,33.959z
			 M119.403,32.66h3.282l-1.645-5.475L119.403,32.66z"/>
		<path fill="#FFFFFF" d="M127.896,37.11V25.068h2.87c1.406,0,2.496,0.44,3.275,1.319c0.778,0.88,1.166,2.117,1.166,3.71v2.019
			c0,1.594-0.395,2.823-1.182,3.693c-0.788,0.868-1.934,1.302-3.433,1.302H127.896L127.896,37.11z M129.409,26.367v9.444h1.215
			c1.064,0,1.842-0.304,2.333-0.914c0.49-0.61,0.742-1.515,0.753-2.711v-2.136c0-1.27-0.244-2.2-0.731-2.794
			c-0.489-0.593-1.227-0.89-2.213-0.89H129.409L129.409,26.367z"/>
		<path fill="#FFFFFF" d="M146.074,32.147c0,1.644-0.351,2.908-1.051,3.796c-0.699,0.888-1.693,1.332-2.984,1.332
			c-1.24,0-2.221-0.432-2.942-1.294c-0.72-0.862-1.093-2.083-1.12-3.66v-2.267c0-1.609,0.356-2.872,1.068-3.783
			c0.709-0.913,1.703-1.369,2.976-1.369c1.269,0,2.257,0.438,2.965,1.311c0.708,0.874,1.071,2.121,1.088,3.743L146.074,32.147
			L146.074,32.147z M144.561,30.038c0-1.273-0.209-2.22-0.624-2.84c-0.416-0.62-1.056-0.931-1.916-0.931
			c-0.833,0-1.463,0.314-1.89,0.942c-0.428,0.629-0.644,1.555-0.648,2.779v2.159c0,1.229,0.213,2.167,0.641,2.812
			c0.428,0.646,1.064,0.967,1.915,0.967c0.848,0,1.477-0.298,1.886-0.892c0.408-0.596,0.62-1.509,0.637-2.738V30.038L144.561,30.038
			z"/>
	</g>
	<rect x="117.872" y="41.271" fill="#FFFFFF" width="27.98" height="2.729"/>
</g>
</svg>
