<?xml version="1.0" encoding="utf-8"?>
<!-- Generator: Adobe Illustrator 16.0.0, SVG Export Plug-In . SVG Version: 6.00 Build 0)  -->
<!DOCTYPE svg PUBLIC "-//W3C//DTD SVG 1.1//EN" "http://www.w3.org/Graphics/SVG/1.1/DTD/svg11.dtd">
<svg version="1.1" id="Capa_1" xmlns="http://www.w3.org/2000/svg" xmlns:xlink="http://www.w3.org/1999/xlink" x="0px" y="0px"
	 width="208.5px" height="39.25px" viewBox="4.25 6 208.5 39.25" enable-background="new 4.25 6 208.5 39.25" xml:space="preserve">
<g>
	<g>
		<path fill="#FFFFFF" d="M18.333,8.75c3.496,0,5.981-0.035,7.456-0.104c-0.163,2.229-0.244,4.228-0.244,5.992
			c0,1.104,0.035,1.963,0.105,2.579h-0.819c-0.581-2.752-1.458-4.732-2.63-5.94c-1.172-1.208-2.485-1.812-3.937-1.812h-0.47
			c-0.651,0-1.121,0.053-1.411,0.157c-0.291,0.104-0.491,0.311-0.601,0.619c-0.11,0.308-0.166,0.799-0.166,1.472v9.128h0.366
			c0.848,0,1.612-0.237,2.291-0.714c0.679-0.476,1.24-1.074,1.681-1.794c0.441-0.72,0.737-1.452,0.889-2.195h0.818
			c-0.093,1.394-0.14,2.55-0.14,3.467l0.018,1.603c0,1.022,0.076,2.711,0.227,5.069h-0.818c-0.151-0.895-0.451-1.698-0.897-2.413
			c-0.448-0.713-1.02-1.277-1.716-1.689c-0.696-0.412-1.481-0.619-2.352-0.619h-0.366v8.205c0,1,0.102,1.729,0.305,2.188
			c0.204,0.459,0.575,0.763,1.116,0.915c0.54,0.15,1.39,0.226,2.552,0.226v0.818c-3.206-0.07-5.656-0.104-7.352-0.104
			c-0.395,0-2.526,0.034-6.393,0.104v-0.718c0.767-0.034,1.321-0.127,1.664-0.277c0.342-0.151,0.575-0.43,0.697-0.836
			s0.183-1.057,0.183-1.951v-17.7c0-0.895-0.064-1.544-0.192-1.952c-0.128-0.406-0.363-0.685-0.706-0.836
			C7.148,9.486,6.598,9.394,5.843,9.359V8.645C8.607,8.714,12.771,8.75,18.333,8.75z"/>
		<path fill="#FFFFFF" d="M46.537,32.416c0.302,0.493,0.819,0.739,1.551,0.739v0.75c-0.743-0.07-1.481-0.104-2.212-0.104
			c-2.497,0-4.564,0.167-6.202,0.504v-2.578c-1.08,1.789-2.973,2.684-5.679,2.684c-1.893,0-3.234-0.477-4.024-1.43
			c-0.36-0.43-0.625-1.004-0.792-1.724c-0.168-0.72-0.253-1.678-0.253-2.874v-9.111c0-1.103-0.148-1.901-0.444-2.395
			s-0.81-0.741-1.542-0.741v-0.749c0.743,0.07,1.48,0.105,2.212,0.105c2.462,0,4.529-0.163,6.202-0.488V30.3
			c0,0.767,0.139,1.332,0.418,1.698c0.279,0.365,0.72,0.548,1.324,0.548c0.442,0,0.859-0.11,1.255-0.332
			c0.395-0.22,0.714-0.524,0.958-0.913s0.366-0.828,0.366-1.316V19.271c0-1.103-0.151-1.901-0.453-2.395
			c-0.303-0.494-0.819-0.741-1.551-0.741v-0.749c0.743,0.07,1.48,0.105,2.212,0.105c2.474,0,4.541-0.163,6.202-0.488V30.02
			C46.084,31.123,46.235,31.921,46.537,32.416z"/>
		<path fill="#FFFFFF" d="M56.501,24.167c0,2.288,0.397,3.917,1.193,4.886c0.795,0.971,1.768,1.455,2.918,1.455
			c1.73,0,3.17-0.796,4.32-2.387l0.61,0.227c-0.337,1.057-0.825,2.041-1.463,2.953c-0.639,0.911-1.463,1.657-2.474,2.237
			c-1.011,0.581-2.184,0.872-3.519,0.872c-2.497,0-4.498-0.775-6.001-2.326c-1.504-1.55-2.256-4.021-2.256-7.412
			c0-2.207,0.395-4.042,1.185-5.505s1.873-2.543,3.249-3.24c1.376-0.697,2.958-1.045,4.747-1.045c4.495,0,6.742,2.665,6.742,7.996
			h-9.216C56.513,23.155,56.501,23.586,56.501,24.167z M60.134,17.538c-0.296-1.214-0.758-1.82-1.385-1.82
			c-0.65,0-1.173,0.511-1.567,1.533c-0.395,1.022-0.651,2.671-0.767,4.947h4.128C60.566,20.305,60.43,18.751,60.134,17.538z"/>
		<path fill="#FFFFFF" d="M84.879,29.891c0.964,0.655,1.446,1.721,1.446,3.195c0,1.266-0.395,2.475-1.185,3.624
			s-1.977,2.087-3.562,2.813c-1.585,0.726-3.522,1.088-5.81,1.088c-2.055,0-3.708-0.143-4.956-0.426
			c-1.249-0.285-2.131-0.647-2.648-1.09c-0.517-0.44-0.775-0.923-0.775-1.445c0-0.65,0.235-1.082,0.706-1.297
			c0.47-0.215,1.341-0.393,2.613-0.531c1.271-0.139,2.122-0.471,2.552-0.993h-1.167c-0.604,0-1.228-0.103-1.873-0.306
			s-1.205-0.58-1.681-1.133c-0.476-0.551-0.714-1.31-0.714-2.272c0-0.79,0.148-1.481,0.444-2.073
			c0.296-0.593,0.775-1.146,1.437-1.663s1.574-1.048,2.735-1.594c-1.371-0.418-2.436-1.06-3.197-1.926
			c-0.76-0.864-1.141-1.953-1.141-3.266c0-1.266,0.357-2.326,1.071-3.179c0.714-0.854,1.699-1.489,2.953-1.908
			c1.254-0.418,2.706-0.627,4.355-0.627c0.755,0,1.47,0.046,2.144,0.139c-0.024-0.244-0.035-0.488-0.035-0.731
			c0-1.417,0.333-2.558,1.001-3.423c0.668-0.865,1.675-1.298,3.022-1.298c0.882,0,1.617,0.212,2.204,0.636
			c0.586,0.424,0.88,1.007,0.88,1.751c0,0.441-0.131,0.839-0.392,1.193c-0.261,0.354-0.613,0.632-1.054,0.836
			c-0.441,0.203-0.935,0.305-1.48,0.305c-0.813,0-1.467-0.154-1.96-0.462c-0.494-0.308-0.903-0.775-1.229-1.402
			c-0.163,0.476-0.244,1.097-0.244,1.864c0,0.279,0.018,0.558,0.052,0.836c1.708,0.325,3.046,0.947,4.016,1.864
			c0.969,0.917,1.455,2.12,1.455,3.606c0,1.266-0.357,2.326-1.071,3.179c-0.714,0.854-1.698,1.49-2.953,1.909
			c-1.254,0.417-2.706,0.626-4.355,0.626c-1.242,0-2.369-0.115-3.379-0.349c-0.499,0.326-0.856,0.616-1.071,0.871
			c-0.215,0.257-0.322,0.56-0.322,0.907c0,0.777,0.424,1.167,1.271,1.167h8.101C82.65,28.905,83.916,29.232,84.879,29.891z
			 M73.626,36.021c-0.07,0.445-0.104,0.821-0.104,1.123c0,0.906,0.272,1.608,0.819,2.108c0.545,0.5,1.347,0.75,2.403,0.75
			c0.917,0,1.725-0.168,2.422-0.505s1.239-0.811,1.629-1.42c0.389-0.609,0.583-1.309,0.583-2.098c0-0.383-0.125-0.672-0.375-0.863
			c-0.25-0.192-0.671-0.287-1.263-0.287h-5.767C73.812,35.176,73.696,35.573,73.626,36.021z M75.133,16.693
			c-0.308,0.778-0.462,2.079-0.462,3.902c0,1.835,0.154,3.139,0.462,3.912c0.308,0.772,0.758,1.158,1.35,1.158
			c0.604,0,1.06-0.386,1.368-1.158s0.462-2.077,0.462-3.912c0-1.835-0.154-3.139-0.462-3.911s-0.764-1.159-1.368-1.159
			C75.891,15.526,75.44,15.915,75.133,16.693z"/>
		<path fill="#FFFFFF" d="M103.71,17.19c1.591,1.539,2.387,4.032,2.387,7.482c0,3.438-0.795,5.92-2.387,7.447
			c-1.591,1.527-3.85,2.291-6.776,2.291c-2.938,0-5.203-0.764-6.794-2.291c-1.591-1.528-2.386-4.01-2.386-7.447
			c0-3.45,0.798-5.943,2.395-7.482s3.858-2.309,6.785-2.309C99.861,14.881,102.12,15.651,103.71,17.19z M95.114,17.843
			c-0.459,1.498-0.688,3.774-0.688,6.829c0,3.042,0.229,5.307,0.688,6.794c0.458,1.487,1.065,2.229,1.82,2.229
			c0.754,0,1.359-0.743,1.812-2.229c0.453-1.487,0.679-3.751,0.679-6.794c0-3.055-0.227-5.331-0.679-6.829
			c-0.453-1.498-1.058-2.247-1.812-2.247C96.179,15.596,95.572,16.345,95.114,17.843z"/>
		<path fill="#FFFFFF" d="M118.268,29.443c0-0.879-0.238-1.553-0.715-2.022c-0.478-0.468-1.338-0.925-2.582-1.369
			c-1.244-0.444-2.195-0.91-2.854-1.4c-0.659-0.488-1.151-1.046-1.479-1.672c-0.328-0.626-0.492-1.343-0.492-2.151
			c0-1.398,0.466-2.549,1.4-3.454s2.155-1.357,3.666-1.357c1.034,0,1.955,0.231,2.764,0.692s1.431,1.104,1.865,1.927
			c0.438,0.823,0.655,1.728,0.655,2.713h-2.229c0-1.09-0.263-1.935-0.787-2.533c-0.525-0.598-1.281-0.897-2.268-0.897
			c-0.896,0-1.592,0.251-2.084,0.753s-0.74,1.206-0.74,2.113c0,0.745,0.268,1.367,0.801,1.87c0.533,0.501,1.357,0.951,2.473,1.347
			c1.736,0.576,2.979,1.282,3.727,2.123s1.121,1.938,1.121,3.297c0,1.431-0.465,2.576-1.394,3.437
			c-0.931,0.859-2.193,1.289-3.793,1.289c-1.026,0-1.974-0.224-2.843-0.672c-0.869-0.449-1.551-1.08-2.047-1.892
			c-0.497-0.812-0.746-1.742-0.746-2.792h2.23c0,1.09,0.306,1.939,0.914,2.545c0.61,0.605,1.44,0.909,2.491,0.909
			c0.978,0,1.713-0.251,2.205-0.752C118.021,30.992,118.268,30.309,118.268,29.443z"/>
		<path fill="#FFFFFF" d="M132.641,29.287h-5.963l-1.369,4.617h-2.279l5.685-17.646h1.902l5.696,17.646h-2.279L132.641,29.287z
			 M127.259,27.384h4.812l-2.411-8.022L127.259,27.384z"/>
		<path fill="#FFFFFF" d="M150.611,31.711l-0.389,0.484c-1.115,1.301-2.748,1.951-4.896,1.951c-1.906,0-3.403-0.631-4.491-1.896
			c-1.085-1.265-1.642-3.052-1.666-5.362v-3.467c0-2.472,0.495-4.324,1.485-5.557c0.988-1.232,2.47-1.848,4.441-1.848
			c1.68,0,2.995,0.466,3.944,1.4c0.948,0.933,1.474,2.268,1.569,4.005h-2.219c-0.088-1.099-0.394-1.958-0.916-2.576
			c-0.52-0.618-1.312-0.927-2.369-0.927c-1.267,0-2.196,0.415-2.785,1.243c-0.592,0.828-0.898,2.151-0.922,3.969v3.6
			c0,1.777,0.338,3.141,1.019,4.09c0.679,0.949,1.651,1.425,2.92,1.425c1.196,0,2.104-0.291,2.728-0.87l0.328-0.301v-4.053h-3.226
			v-1.903h5.442v6.593H150.611z"/>
		<path fill="#FFFFFF" d="M160.559,26.768h-3.102v7.138h-2.23V16.259h4.945c1.729,0,3.037,0.45,3.926,1.352
			c0.889,0.901,1.334,2.22,1.334,3.957c0,1.091-0.238,2.042-0.721,2.854c-0.48,0.812-1.162,1.424-2.042,1.836l3.417,7.501v0.146
			h-2.389L160.559,26.768z M157.457,24.864h2.689c0.931,0,1.672-0.299,2.226-0.899c0.552-0.599,0.83-1.4,0.83-2.403
			c0-2.267-1.026-3.4-3.079-3.4h-2.666V24.864L157.457,24.864z"/>
		<path fill="#FFFFFF" d="M177.622,29.287h-5.963l-1.368,4.617h-2.279l5.686-17.646h1.902l5.695,17.646h-2.277L177.622,29.287z
			 M172.243,27.384h4.81l-2.41-8.022L172.243,27.384z"/>
		<path fill="#FFFFFF" d="M184.688,33.904V16.259h4.205c2.061,0,3.658,0.645,4.799,1.933c1.141,1.289,1.709,3.101,1.709,5.435v2.958
			c0,2.335-0.578,4.138-1.731,5.412c-1.155,1.272-2.833,1.908-5.03,1.908L184.688,33.904L184.688,33.904z M186.904,18.162v13.84
			h1.781c1.56,0,2.698-0.445,3.418-1.34c0.719-0.895,1.088-2.219,1.104-3.973V23.56c0-1.86-0.357-3.224-1.072-4.093
			c-0.717-0.87-1.797-1.304-3.242-1.304L186.904,18.162L186.904,18.162z"/>
		<path fill="#FFFFFF" d="M211.324,26.633c0,2.407-0.514,4.262-1.54,5.562c-1.024,1.3-2.481,1.951-4.373,1.951
			c-1.817,0-3.254-0.633-4.312-1.896c-1.054-1.264-1.601-3.052-1.642-5.363v-3.321c0-2.359,0.522-4.208,1.565-5.544
			c1.039-1.337,2.496-2.006,4.36-2.006c1.859,0,3.308,0.641,4.345,1.921c1.037,1.281,1.569,3.108,1.594,5.484v3.212H211.324z
			 M209.105,23.542c0-1.866-0.306-3.253-0.914-4.162c-0.609-0.909-1.547-1.364-2.807-1.364c-1.221,0-2.144,0.461-2.77,1.382
			c-0.627,0.921-0.943,2.278-0.95,4.072v3.164c0,1.802,0.312,3.175,0.938,4.12s1.561,1.417,2.807,1.417
			c1.242,0,2.164-0.437,2.763-1.308c0.599-0.873,0.909-2.211,0.933-4.012V23.542L209.105,23.542z"/>
	</g>
	<rect x="170" y="40" fill="#FFFFFF" width="41" height="4"/>
</g>
</svg>
